<?xml version="1.0" standalone="no"?>
<!DOCTYPE svg PUBLIC "-//W3C//DTD SVG 20010904//EN"
 "http://www.w3.org/TR/2001/REC-SVG-20010904/DTD/svg10.dtd">
<svg version="1.0" xmlns="http://www.w3.org/2000/svg"
 width="291.000000pt" height="230.000000pt" viewBox="0 0 291.000000 230.000000"
 preserveAspectRatio="xMidYMid meet">

<g transform="translate(0.000000,230.000000) scale(0.100000,-0.100000)"
fill="#000000" stroke="none">
<path d="M2170 1889 c0 -7 -14 -10 -35 -7 -36 4 -47 -5 -19 -16 28 -11 49 -6
62 14 7 12 8 20 2 20 -5 0 -10 -5 -10 -11z"/>
<path d="M2050 1868 c22 -10 23 -12 6 -15 -10 -3 -22 -1 -28 5 -9 9 -131 -18
-173 -39 -11 -5 -55 -8 -97 -5 -43 2 -78 0 -78 -5 0 -5 18 -9 40 -9 30 0 40
-4 40 -16 0 -8 -5 -12 -10 -9 -13 8 -133 8 -163 0 -12 -2 -16 -2 -9 1 6 3 12
12 12 20 0 9 4 13 9 10 5 -4 8 2 7 11 -2 12 -13 19 -32 20 -16 1 -21 -1 -11
-3 20 -6 22 -20 5 -30 -7 -4 -8 -3 -4 4 4 7 0 13 -11 13 -62 6 -72 10 -38 18
30 7 29 7 -15 17 -25 6 -67 7 -95 3 l-50 -7 52 1 c29 0 56 -2 60 -6 11 -12
-96 -8 -115 4 -24 15 -119 -18 -210 -72 -53 -32 -77 -54 -100 -93 -75 -124
-236 -296 -278 -296 -20 0 -132 97 -248 215 l-99 100 53 -100 c53 -101 143
-238 187 -286 32 -35 38 -101 24 -272 -11 -128 -58 -336 -90 -396 -14 -25 -51
-121 -48 -121 8 0 99 133 130 190 74 134 167 434 167 534 0 13 25 56 56 97 30
41 76 117 100 169 25 52 52 108 60 123 7 16 14 34 14 41 0 7 11 26 25 42 14
16 25 24 25 17 0 -7 -10 -21 -22 -33 -12 -11 -19 -22 -16 -26 9 -8 49 19 44
31 -6 18 14 44 45 61 24 12 30 13 27 2 -3 -7 -15 -19 -29 -25 -13 -7 -19 -13
-14 -13 6 0 3 -5 -5 -11 -12 -8 -10 -9 10 -5 14 3 32 6 40 6 13 0 13 1 0 10
-13 8 -12 10 3 10 10 0 20 6 23 14 3 8 13 12 25 9 11 -3 19 0 19 6 0 7 -4 9
-10 6 -12 -7 -13 15 -2 30 11 16 71 34 78 24 3 -5 -4 -9 -16 -9 -12 0 -18 -4
-15 -10 4 -6 1 -9 -6 -8 -7 2 -15 -5 -17 -14 -3 -16 5 -18 67 -18 56 0 71 -3
71 -15 0 -8 5 -15 10 -15 6 0 10 9 10 20 0 20 -29 26 -115 22 -25 -1 -26 0
-10 7 11 5 45 7 75 5 40 -3 49 -2 35 5 l-20 10 20 1 c51 5 64 -4 41 -29 -16
-17 -16 -19 1 -26 17 -8 23 -10 41 -14 4 -2 -2 -6 -13 -11 -19 -8 -19 -9 3 -9
12 -1 22 3 22 7 0 5 26 5 58 0 60 -10 242 -5 261 7 6 3 37 9 68 11 31 3 63 9
72 15 12 7 6 9 -21 4 -21 -3 -38 -3 -38 0 0 8 38 21 85 29 31 5 36 4 25 -4
-12 -9 -8 -10 15 -5 17 3 35 13 41 21 6 7 18 14 27 14 9 0 19 5 22 10 3 6 -3
10 -14 10 -11 0 -26 7 -35 15 -8 8 -25 15 -38 14 l-23 0 25 -11z m-45 -28 c-4
-6 8 -10 29 -10 19 0 38 -4 41 -10 8 -12 -11 -13 -52 -1 -25 7 -41 6 -64 -6
-26 -13 -33 -13 -40 -2 -6 11 0 15 26 20 20 3 38 9 42 12 10 11 25 8 18 -3z"/>
<path d="M1328 1763 c12 -2 32 -2 45 0 12 2 2 4 -23 4 -25 0 -35 -2 -22 -4z"/>
<path d="M1555 1720 c30 -8 202 -13 194 -6 -2 2 -53 6 -114 8 -60 3 -96 2 -80
-2z"/>
<path d="M1760 1721 c0 -4 11 -6 25 -3 14 2 25 6 25 8 0 2 -11 4 -25 4 -14 0
-25 -4 -25 -9z"/>
<path d="M2225 1680 c-42 -28 -185 -78 -285 -101 -119 -26 -225 -25 -341 6
-51 13 -111 25 -131 25 -73 0 -182 -30 -262 -74 -72 -39 -83 -49 -113 -102
-41 -74 -41 -81 0 -50 47 36 132 73 209 91 73 17 113 13 276 -24 97 -22 167
-22 277 1 51 10 163 43 200 58 144 60 159 71 198 147 27 50 21 55 -28 23z"/>
<path d="M1980 1241 l0 -231 48 0 47 0 0 106 c0 99 1 107 24 125 29 24 36 24
61 -1 17 -17 20 -33 20 -125 l0 -105 46 0 46 0 -4 141 c-3 134 -4 142 -27 160
-31 26 -91 25 -125 -2 -39 -31 -47 -17 -45 74 l2 82 -46 3 -47 3 0 -230z"/>
<path d="M1757 1404 c-4 -4 -7 -22 -7 -40 0 -23 -5 -33 -20 -37 -28 -7 -28
-63 -1 -70 17 -4 20 -16 23 -115 1 -61 6 -114 11 -118 4 -4 34 -10 67 -12 l60
-4 0 41 c0 34 -3 41 -20 41 -18 0 -20 7 -20 81 0 72 2 81 20 86 29 8 28 61 -2
72 -17 6 -23 16 -23 42 0 33 -2 34 -40 37 -23 2 -44 0 -48 -4z"/>
<path d="M1012 1310 c-82 -51 -95 -195 -24 -263 54 -52 176 -55 229 -5 72 67
72 190 -1 258 -23 21 -39 25 -99 28 -59 2 -78 -1 -105 -18z m140 -77 c19 -17
26 -96 10 -119 -9 -13 -46 -34 -62 -34 -25 0 -60 49 -60 85 0 73 63 112 112
68z"/>
<path d="M1360 1197 c0 -129 1 -134 25 -157 30 -28 115 -44 165 -30 20 5 47
21 61 36 23 24 24 32 24 152 l0 127 -45 0 -45 0 -3 -109 c-3 -115 -10 -136
-47 -136 -37 0 -44 21 -47 136 l-3 109 -42 3 -43 3 0 -134z"/>
<path d="M1303 933 c-11 -33 -4 -383 7 -383 4 0 15 16 25 36 14 30 15 38 4 45
-16 10 -27 149 -11 149 5 0 22 -17 38 -37 16 -21 39 -47 52 -57 14 -11 40 -44
59 -74 52 -80 57 -65 61 158 4 190 -2 222 -28 159 -10 -23 -10 -35 -1 -52 7
-14 11 -55 9 -106 l-3 -84 -63 64 c-39 40 -76 91 -99 137 -20 39 -37 72 -39
72 -1 0 -6 -12 -11 -27z"/>
<path d="M1038 896 c-26 -39 -106 -124 -156 -163 -23 -18 -24 -19 -5 -51 14
-25 22 -31 38 -26 39 13 105 16 105 5 0 -25 -25 -61 -42 -61 -11 0 -16 5 -13
10 3 6 2 10 -3 10 -16 0 -23 -31 -11 -46 14 -17 40 -18 92 -2 32 10 41 10 45
0 2 -7 10 -12 17 -12 25 0 28 22 6 51 -26 36 -27 49 -1 49 21 0 70 41 70 58 0
4 -6 16 -13 27 -13 17 -15 17 -36 -4 -30 -30 -40 -19 -30 31 22 110 21 121 -9
145 l-28 21 -26 -42z m2 -130 c0 -18 -7 -25 -27 -29 -40 -7 -42 1 -10 29 35
30 37 30 37 0z"/>
<path d="M1911 847 c-6 -6 -11 -22 -11 -34 0 -23 -3 -24 -64 -21 -42 1 -70 -3
-80 -11 -22 -19 -20 -41 4 -41 24 0 24 0 5 -36 -8 -16 -15 -41 -15 -56 0 -30
-20 -37 -39 -14 -6 7 -14 35 -18 62 -3 27 -11 52 -17 56 -22 15 -55 8 -86 -18
-29 -25 -31 -30 -28 -87 4 -75 22 -91 69 -64 30 17 32 17 45 0 12 -17 15 -17
43 -1 29 16 30 16 46 -8 20 -31 49 -31 80 1 33 33 32 46 -5 39 -25 -5 -31 -2
-41 20 -19 41 -1 88 38 98 18 5 38 17 46 28 12 17 16 18 26 6 7 -8 8 -17 3
-20 -5 -3 -8 -42 -8 -88 1 -72 3 -83 19 -86 10 -2 25 5 32 15 7 10 15 16 17
13 2 -3 8 -14 14 -25 6 -11 21 -21 33 -23 31 -5 88 58 97 105 7 36 7 36 16 13
5 -14 8 -42 6 -62 -7 -74 32 -25 42 51 6 50 19 60 45 35 14 -14 16 -28 11 -71
-7 -60 5 -70 29 -23 17 33 20 112 5 141 -12 22 -50 25 -80 7 -17 -11 -22 -10
-30 2 -8 13 -11 12 -25 -5 -14 -19 -16 -19 -26 -2 -6 11 -22 17 -44 17 -42 0
-82 -44 -91 -101 -11 -66 -32 -49 -33 26 0 36 -3 70 -6 76 -4 5 -3 15 3 22 19
25 20 44 2 60 -13 11 -21 12 -29 4z m160 -154 c11 -29 4 -79 -13 -89 -14 -9
-48 32 -48 58 0 28 18 58 36 58 8 0 19 -12 25 -27z m-420 -20 c7 -36 -10 -59
-36 -49 -10 3 -15 19 -15 46 0 37 2 41 22 38 16 -2 24 -12 29 -35z m-51 -74
c0 -6 -4 -7 -10 -4 -5 3 -10 11 -10 16 0 6 5 7 10 4 6 -3 10 -11 10 -16z m440
-19 c0 -5 -5 -10 -11 -10 -5 0 -7 5 -4 10 3 6 8 10 11 10 2 0 4 -4 4 -10z"/>
</g>
</svg>
