<?xml version="1.0" standalone="yes"?>
<svg xmlns="http://www.w3.org/2000/svg" width="291" height="230">
<path style="fill:#fefdfc; stroke:none;" d="M0 0L0 230L291 230L291 0L0 0z"/>
<path style="fill:#c7a581; stroke:none;" d="M55 72C56.8576 75.9724 59.6924 78.4293 63 81.2708C66.492 84.2708 71.1605 89.8487 76 90.4198C81.7961 91.1036 88.2827 82.8788 91.561 79C100.851 68.0076 110.711 46.3569 128 48L128 47L126 47L126 46L133 44C136.567 45.189 151.336 41.6546 150 47L177 48.9105L206 44L206 43L203 43L203 42L217 42L209 49L207 48C197.11 56.0474 180.153 57.0335 168 57L168 58L175 58L175 59C156.16 59 137.109 49.5437 118.834 56.7045C112.133 59.3304 106.37 61.6451 104 69L105 69C116.738 47.5462 145.318 59.6723 163 60.9105C174.733 61.7321 186.959 58.4679 198 54.7948C206.676 51.9084 217.815 48.3616 221 39C205.897 39 192.85 46.2875 178 46.9606C155.275 47.9908 138.201 36.8289 116 48.6304C100.374 56.9366 95.443 83.8461 78 88.6319C70.648 90.6491 60.4176 75.8163 55 72z"/>
<path style="fill:#cf2a18; stroke:none;" d="M218 40L219 41L218 40M203 42L203 43L206 43L206 44L176 48.9066L150 47C149.275 41.7539 137.253 44.3663 133 44L126 46L126 47L128 47L128 48C110.345 44.6171 99.3968 69.4203 89.8295 79.9992C86.892 83.2473 81.7356 89.6209 77 89.9784C73.2946 90.2581 69.5589 86.0587 67 83.8688C59.3837 77.351 52.9496 68.955 45 63C44.9783 78.1388 63.1126 89.653 67.9684 103C70.284 109.365 68.5348 116.503 68.0895 123C66.8443 141.167 62.084 158.189 55 175C77.094 158.052 76.0774 126.431 84.7238 103C87.3403 95.9094 93.7903 89.6121 97.5725 83C102.708 74.022 104.184 63.6168 114.285 58.7245C134.259 49.0505 154.188 59 175 59L175 58L168 58L168 57C178.418 57.0863 199.886 57.2724 207 48L209 49L217 42L203 42z"/>
<path style="fill:#c7a581; stroke:none;" d="M155 47L156 48L155 47M134.667 52.3333L135.333 52.6667L134.667 52.3333M138 52L139 53L138 52M116.667 53.3333L117.333 53.6667L116.667 53.3333M160 57L160 58L164 58L160 57M41 58L43 65L44 65L43 61L46 63L41 58M108 58L107 61L108 58M227 58L224 60L224 61L228 61L227 58z"/>
<path style="fill:#2b8e2c; stroke:none;" d="M200 70L200 71L208 69L208 70L196 73L196 72L199 72L199 71L192 72L192 75L186 75L186 74L190 74L190 73L176 74L176 75L185 77C179.377 74.1885 158.344 77.6233 160 71L154 70L154 71L157 71L157 72L152 72L152 69L139 69L139 70L151 70L151 71L130 71L121 75L121 76L128 74L128 75L118 79L119 77L115 79L115 80L118 79L112 83L114 80L109 87L111 88L113 87L114 89L115 86L117 88L120 86L120 85L116 86L116 85L128 82L128 83L121 84L121 85L149 83L149 82L132 81L132 80L184 86L184 85L179 85L179 84L196 83L196 82L194 81L212 75L211 77L218 74L218 73L212 75L212 74L219 71L218 68L221 69L226 64L226 63L223 63L223 62L227 62L227 61L200 70z"/>
<path style="fill:#16572a; stroke:none;" d="M43 61L44 64L45 64L43 61z"/>
<path style="fill:#c7a581; stroke:none;" d="M222 61L223 62L222 61z"/>
<path style="fill:#16572a; stroke:none;" d="M225 61L223 62L223 63L225 61z"/>
<path style="fill:#cf2a18; stroke:none;" d="M43 62L44 63L43 62z"/>
<path style="fill:#c7a581; stroke:none;" d="M220 62L221 63L220 62M226.333 62.6667L226.667 63.3333L226.333 62.6667M46 63L47 64L46 63M218 63L219 64L218 63z"/>
<path style="fill:#16572a; stroke:none;" d="M208 68L208 69L223 64L208 68z"/>
<path style="fill:#c7a581; stroke:none;" d="M47 64L48 65L47 64M215.667 64.3333L216.333 64.6667L215.667 64.3333z"/>
<path style="fill:#16572a; stroke:none;" d="M223 64L221 69L218 68L219 71L212 74L212 75C218.442 73.4478 222.142 69.9163 225 64L223 64z"/>
<path style="fill:#c7a581; stroke:none;" d="M225 64L224 67L225 64M44.3333 65.6667L44.6667 66.3333L44.3333 65.6667M48 65L49 66L48 65M212.667 65.3333L213.333 65.6667L212.667 65.3333z"/>
<path style="fill:#2b8e2c; stroke:none;" d="M224 65L225 66L224 65z"/>
<path style="fill:#c7a581; stroke:none;" d="M49 66L49 68L51 68L49 66M210.667 66.3333L211.333 66.6667L210.667 66.3333M45.3333 67.6667L45.6667 68.3333L45.3333 67.6667M207 67L208 68L207 67z"/>
<path style="fill:#2b8e2c; stroke:none;" d="M223 67L219 73L223 67z"/>
<path style="fill:#c7a581; stroke:none;" d="M51 68L54 72L51 68M142 68L142 69L148 69L142 68M204.667 68.3333L205.333 68.6667L204.667 68.3333M223 68L224 69L223 68M46 69L48 72L46 69M136 69L136 70L139 70L136 69M152 69L152 70L155 70L152 69M201.667 69.3333L202.333 69.6667L201.667 69.3333z"/>
<path style="fill:#16572a; stroke:none;" d="M196 72L196 73L208 70L196 72z"/>
<path style="fill:#c7a581; stroke:none;" d="M103.333 70.6667L103.667 71.3333L103.333 70.6667M131 70L131 71L134 71L131 70z"/>
<path style="fill:#2b8e2c; stroke:none;" d="M134.667 70.3333L135.333 70.6667L134.667 70.3333z"/>
<path style="fill:#16572a; stroke:none;" d="M132 71L132 72L151 71L132 71M152 70L157 72L157 71L152 70z"/>
<path style="fill:#c7a581; stroke:none;" d="M157.667 70.3333L158.333 70.6667L157.667 70.3333M198.667 70.3333L199.333 70.6667L198.667 70.3333M222 70L223 71L222 70M129 71L130 72L129 71M160 71L161 72L160 71M194.667 71.3333L195.333 71.6667L194.667 71.3333z"/>
<path style="fill:#16572a; stroke:none;" d="M208 71L209 72L208 71z"/>
<path style="fill:#c7a581; stroke:none;" d="M221 71L222 72L221 71M48.3333 72.6667L48.6667 73.3333L48.3333 72.6667M102 72L102 75L103 75L102 72M126.667 72.3333L127.333 72.6667L126.667 72.3333z"/>
<path style="fill:#16572a; stroke:none;" d="M128 74L131 73L128 74M159 72L159 73L185 77L159 72z"/>
<path style="fill:#2b8e2c; stroke:none;" d="M162 72L162 73L170 74L170 73L162 72z"/>
<path style="fill:#c7a581; stroke:none;" d="M164.667 72.3333L165.333 72.6667L164.667 72.3333M190.667 72.3333L191.333 72.6667L190.667 72.3333M220 72L221 73L220 72M124 73L125 74L124 73M170 73L170 74L173 74L170 73M184 73L185 74L184 73z"/>
<path style="fill:#16572a; stroke:none;" d="M186 74L186 75L192 73L186 74M195 73L196 74L195 73z"/>
<path style="fill:#c7a581; stroke:none;" d="M218.667 73.3333L219.333 73.6667L218.667 73.3333M49.3333 74.6667L49.6667 75.3333L49.3333 74.6667M122 74L123 75L122 74z"/>
<path style="fill:#16572a; stroke:none;" d="M118 79L128 75C124.032 73.9 120.641 76.1109 118 79z"/>
<path style="fill:#c7a581; stroke:none;" d="M217 74L218 75L217 74M101.333 75.6667L101.667 76.3333L101.333 75.6667M120 75L121 76L120 75z"/>
<path style="fill:#16572a; stroke:none;" d="M194 81L194 82L212 76L194 81z"/>
<path style="fill:#c7a581; stroke:none;" d="M214.667 75.3333L215.333 75.6667L214.667 75.3333M50.3333 76.6667L50.6667 77.3333L50.3333 76.6667M118.667 76.3333L119.333 76.6667L118.667 76.3333z"/>
<path style="fill:#16572a; stroke:none;" d="M168.667 76.3333L169.333 76.6667L168.667 76.3333z"/>
<path style="fill:#c7a581; stroke:none;" d="M212.667 76.3333L213.333 76.6667L212.667 76.3333M100.333 77.6667L100.667 78.3333L100.333 77.6667M116.667 77.3333L117.333 77.6667L116.667 77.3333z"/>
<path style="fill:#16572a; stroke:none;" d="M180 77L180 78L184 78L180 77z"/>
<path style="fill:#2b8e2c; stroke:none;" d="M203 79L203 80L210 78L203 79z"/>
<path style="fill:#c7a581; stroke:none;" d="M210.667 77.3333L211.333 77.6667L210.667 77.3333M51 78L52 79L51 78M114 78L114 80L116 78L114 78M208 78L209 79L208 78M52.3333 79.6667L52.6667 80.3333L52.3333 79.6667M99.3333 79.6667L99.6667 80.3333L99.3333 79.6667z"/>
<path style="fill:#16572a; stroke:none;" d="M112 83L118 79L112 83M127 79L128 80L127 79M191 79L193 81L191 79z"/>
<path style="fill:#c7a581; stroke:none;" d="M205 79L206 80L205 79M112 80L113 81L112 80z"/>
<path style="fill:#16572a; stroke:none;" d="M132 80L132 81L179 86L166 84.561L132 80z"/>
<path style="fill:#2b8e2c; stroke:none;" d="M200.667 80.3333L201.333 80.6667L200.667 80.3333z"/>
<path style="fill:#c7a581; stroke:none;" d="M202.667 80.3333L203.333 80.6667L202.667 80.3333M53.3333 81.6667L53.6667 82.3333L53.3333 81.6667M98.3333 81.6667L98.6667 82.3333L98.3333 81.6667M111 81L112 82L111 81z"/>
<path style="fill:#16572a; stroke:none;" d="M128 81L128 82L131 82L128 81M158 81L158 82L162 82L158 81M184 81L184 82L187 82L184 81z"/>
<path style="fill:#2b8e2c; stroke:none;" d="M197.667 81.3333L198.333 81.6667L197.667 81.3333z"/>
<path style="fill:#c7a581; stroke:none;" d="M199 81L200 82L199 81M110 82L111 83L110 82z"/>
<path style="fill:#16572a; stroke:none;" d="M116 85L116 86L128 83L116 85z"/>
<path style="fill:#c7a581; stroke:none;" d="M131 82L131 83L135 83L131 82M142 82L142 83L146 83L142 82z"/>
<path style="fill:#16572a; stroke:none;" d="M179 84L179 85L193 83L179 84z"/>
<path style="fill:#c7a581; stroke:none;" d="M196 82L197 83L196 82M198.333 82.6667L198.667 83.3333L198.333 82.6667M203 82L204 83L203 82M205 82L205 83L207 99L208 99C208 93.7691 209.86 85.1507 205 82M54 83L55 84L54 83M97 83L96 86L97 83z"/>
<path style="fill:#16572a; stroke:none;" d="M111 83L111 86L112 86L111 83z"/>
<path style="fill:#c7a581; stroke:none;" d="M128 83L129 84L128 83M148.667 83.3333L149.333 83.6667L148.667 83.3333z"/>
<path style="fill:#2b8e2c; stroke:none;" d="M150.667 83.3333L151.333 83.6667L150.667 83.3333M190.667 83.3333L191.333 83.6667L190.667 83.3333z"/>
<path style="fill:#c7a581; stroke:none;" d="M192.667 83.3333L193.333 83.6667L192.667 83.3333z"/>
<path style="fill:#cf2a18; stroke:none;" d="M207 129C207 124.25 204.553 104.398 213 105.315C220.801 106.162 218 123.727 218 129C220.424 128.991 224.257 129.565 225.972 127.397C228.174 124.613 227 118.33 227 115C227 101.2 222.363 92.4818 208 101L207 83C204.576 83.0086 200.743 82.435 199.028 84.6034C197.229 86.8771 198 91.3054 198 94C198 101.352 194.434 121.591 199.028 127.397C200.743 129.565 204.576 128.991 207 129z"/>
<path style="fill:#c7a581; stroke:none;" d="M55.3333 84.6667L55.6667 85.3333L55.3333 84.6667M109 84L110 85L109 84M124 84L125 85L124 84M152.667 84.3333L153.333 84.6667L152.667 84.3333z"/>
<path style="fill:#2b8e2c; stroke:none;" d="M154 84L154 85L157 85L154 84M185 84L185 85L189 85L185 84z"/>
<path style="fill:#c7a581; stroke:none;" d="M189.667 84.3333L190.333 84.6667L189.667 84.3333M120 85L120 86L123 86L120 85M156 85L156 86L159 86L156 85z"/>
<path style="fill:#2b8e2c; stroke:none;" d="M159 85L159 86L178 87L159 85z"/>
<path style="fill:#c7a581; stroke:none;" d="M184.667 85.3333L185.333 85.6667L184.667 85.3333M56 86L57 87L56 86M95.3333 86.6667L95.6667 87.3333L95.3333 86.6667M108 86L106 91L107 91L108 86z"/>
<path style="fill:#16572a; stroke:none;" d="M110 86L106 93L113 87L110 86M115 86L114 88L116 88L115 86z"/>
<path style="fill:#c7a581; stroke:none;" d="M119 86L120 87L119 86M160 86L160 87L163 87L160 86M178 86L178 87L182 87L178 86M57 87L58 88L57 87M117 87L118 88L117 87M58.3333 88.6667L58.6667 89.3333L58.3333 88.6667M94 88L93 91L94 88z"/>
<path style="fill:#2b8e2c; stroke:none;" d="M108 88L109 89L108 88z"/>
<path style="fill:#c7a581; stroke:none;" d="M114.667 88.3333L115.333 88.6667L114.667 88.3333M175 88L174 91L175 88M184.333 88.6667L184.667 89.3333L184.333 88.6667M112.667 89.3333L113.333 89.6667L112.667 89.3333z"/>
<path style="fill:#cf2a18; stroke:none;" d="M171 104C179.717 108.807 170.703 120.987 176.858 127.142C182.927 133.211 194.446 124.135 185 121C184.523 114.91 182.668 107.399 189 104L189 98C185.121 96.1489 184.698 94.143 185 90C176.117 87.381 171.275 95.7013 171 104z"/>
<path style="fill:#c7a581; stroke:none;" d="M59 90L60 91L59 90z"/>
<path style="fill:#2b8e2c; stroke:none;" d="M107 90L108 91L107 90M109 92L112 91L109 92z"/>
<path style="fill:#c7a581; stroke:none;" d="M60.3333 91.6667L60.6667 92.3333L60.3333 91.6667M92 91L93 92L92 91z"/>
<path style="fill:#2b8e2c; stroke:none;" d="M106 91L107 92L106 91z"/>
<path style="fill:#c7a581; stroke:none;" d="M110 91L111 92L110 91M91.3333 92.6667L91.6667 93.3333L91.3333 92.6667M105 92L104 95L109 92L105 92z"/>
<path style="fill:#2b8e2c; stroke:none;" d="M107 92L108 93L107 92z"/>
<path style="fill:#c7a581; stroke:none;" d="M184.333 92.6667L184.667 93.3333L184.333 92.6667M61 93L62 94L61 93z"/>
<path style="fill:#2b8e2c; stroke:none;" d="M106 93L107 94L106 93z"/>
<path style="fill:#c7a581; stroke:none;" d="M62.3333 94.6667L62.6667 95.3333L62.3333 94.6667M90 94L91 95L90 94M89 95L90 96L89 95M184 95L185 96L184 95M88.3333 96.6667L88.6667 97.3333L88.3333 96.6667M106 96L106 97L119 98L106 96M144.333 96.6667L144.667 97.3333L144.333 96.6667M154 98L157 98L156 96L154 98M162 96L164 100L165 100L162 96M171 96L171 98L173 98L171 96M173.667 96.3333L174.333 96.6667L173.667 96.3333M185 96L186 97L185 96M215 96L215 97L221 97L215 96M64 97L65 98L64 97M94 109L95 109L104 98C98.1488 97.5191 94.9047 104.006 94 109z"/>
<path style="fill:#cf2a18; stroke:none;" d="M104.004 97.7276C83.5153 105.144 97.2817 136.637 117.999 128.272C137.407 120.435 123.905 90.5242 104.004 97.7276z"/>
<path style="fill:#c7a581; stroke:none;" d="M135 97C135 110.092 130.704 129.834 149 130L149 129C129.251 128.523 139.835 108.523 135 97z"/>
<path style="fill:#cf2a18; stroke:none;" d="M136 97L136 113C136 116.203 135.542 119.941 136.742 122.985C138.53 127.518 142.613 128.663 147 129.266C160.787 131.161 163.999 121.704 164 110C164 106.883 165.223 100.219 162.397 98.0316C160.173 96.3107 156.459 97.5454 154 98L154 107C154 110.021 152.101 128.885 146.028 118.847C140.639 109.941 151.455 97.0546 136 97z"/>
<path style="fill:#c7a581; stroke:none;" d="M186 97L186 98L189 98L186 97M212.667 97.3333L213.333 97.6667L212.667 97.3333M221 97L221 98L224 98L221 97M65 98L66 99L65 98M87 98L88 99L87 98M120 98L121 99L120 98M170 98L171 99L170 98M211 98L212 99L211 98M224 98L225 99L224 98M66 99L67 100L66 99M86 99L87 100L86 99M121 99L122 100L121 99M208 101L211 99L208 101M225 99L226 100L225 99M67.3333 100.667L67.6667 101.333L67.3333 100.667M85.3333 100.667L85.6667 101.333L85.3333 100.667M122 100L123 101L122 100M226 100L226 103L227 103L226 100M123 101L124 102L123 101M189 101L190 102L189 101M84 102L84 108L85 108L84 102M124 102L125 103L124 102M125.333 103.667L125.667 104.333L125.333 103.667M68 104L68 120L69 120L68 104M171 104L171 105L175 106L175 105L171 104M186 104L186 105L189 105L186 104M212.667 104.333L213.333 104.667L212.667 104.333M227 104C227 113.607 230.978 128.847 218 129L218 108L217 108L217 130C219.703 130 224.129 130.769 226.397 128.972C230.268 125.906 228.741 108.149 227 104M112 122L112 121C97.9547 116.107 111.554 99.349 116 112C117.573 106.992 111.69 103.338 107.228 106.029C99.689 110.575 105.484 120.673 112 122M126 105L126 108L127 108L126 105M185 105L186 106L185 105M209 105L209 107L211 105L209 105M214.667 105.333L215.333 105.667L214.667 105.333z"/>
<path style="fill:#fefdfc; stroke:none;" d="M108.228 107.032C102.431 110.466 105.554 123.634 112.867 119.928C119.636 116.499 115.704 102.604 108.228 107.032z"/>
<path style="fill:#c7a581; stroke:none;" d="M216.333 106.667L216.667 107.333L216.333 106.667M184.333 107.667L184.667 108.333L184.333 107.667M208.333 107.667L208.667 108.333L208.333 107.667M127 108L127 118L128 118L127 108M83 109L83 113L84 113L83 109M207 110L207 129L208 129L207 110M93 111L93 116L94 116L93 111M184 111L184 117L185 117L184 111M82 114L82 119L83 119L82 114M116 115L116 118L117 118L116 115M94 117L94 121L95 121L94 117M115 118L114 120L116 120L115 118M145.333 118.667L145.667 119.333L145.333 118.667M126.333 119.667L126.667 120.333L126.333 119.667M153 119L154 120L153 119M185 119L185 121L187 121L185 119M81 120L81 123L82 123L81 120M113 120L114 121L113 120M146 120L147 121L146 120M152 120L153 121L152 120M163 120L163 124L164 124L163 120M188.333 120.667L188.667 121.333L188.333 120.667M95 121L96 122L95 121M125.333 121.667L125.667 122.333L125.333 121.667M147 121L147 122L152 122L147 121M96 123L97 124L96 123M124 123L125 124L124 123M80 124L80 127L81 127L80 124M97 124L98 125L97 124M123 124L120 128L123 124M162 124L163 125L162 124M98 125L99 126L98 125M161 125L162 126L161 125M175.333 125.667L175.667 126.333L175.333 125.667M99 126L100 127L99 126M160 126L161 127L160 126M100 127L101 128L100 127M159 127L160 128L159 127M67 128L67 134L68 134L67 128M79.3333 128.667L79.6667 129.333L79.3333 128.667M102.667 128.333L103.333 128.667L102.667 128.333M118.667 128.333L119.333 128.667L118.667 128.333M157.667 128.333L158.333 128.667L157.667 128.333M177.667 128.333L178.333 128.667L177.667 128.333M180 129L180 130L190 129L180 129M197 128L197 129L207 130L207 129L197 128M104 129L104 130L111 130L104 129M112 129L112 130L118 130L112 129M153 129L153 130L157 130L153 129M111 130L112 131L111 130M78.3333 131.667L78.6667 132.333L78.3333 131.667M130 136L131 136L133 135C131.188 133.499 130.978 133.842 130 136M77.3333 134.667L77.6667 135.333L77.3333 134.667z"/>
<path style="fill:#2b8e2c; stroke:none;" d="M131 134L132 135L131 134z"/>
<path style="fill:#16572a; stroke:none;" d="M152 134L152 161C143.568 155.011 135.42 145.185 133 135C125.975 139.298 130.296 156.436 130 164L131 164L131 151C139.044 156.148 146.04 165.934 151 174L153 169L152 169L152 172L151 172L137 152L138 151L140 151C141.068 152.974 142.189 154.579 143.669 156.285C157.336 172.046 154 142.367 154 134L152 134z"/>
<path style="fill:#c7a581; stroke:none;" d="M154 134C154 140.619 150.925 158.565 156 163L154 134M151 135L152 136L151 135M66 136L66 140L67 140L66 136M76 136L76 139L77 139L76 136M105 136L98 147C101.602 144.401 105.779 140.794 105 136z"/>
<path style="fill:#16572a; stroke:none;" d="M106 136L86 159L86 160L90 165C92.4863 164.192 98.0183 161.259 100.263 163.696C102.949 166.612 98.6611 169.535 96 168L95 168C95.7027 177.018 105.531 172.119 112 174L109 164C114.728 163.087 116.812 160.777 117 155L110 158L109 157C111.156 148.667 114.073 141.52 106 136z"/>
<path style="fill:#c7a581; stroke:none;" d="M107 136L108 137L107 136M133.333 136.667L133.667 137.333L133.333 136.667M108 137L109 138L108 137M129.333 137.667L129.667 138.333L129.333 137.667M150 137L149 142L150 142L150 137M109 138L110 139L109 138z"/>
<path style="fill:#2b8e2c; stroke:none;" d="M150 138L151 139L150 138z"/>
<path style="fill:#c7a581; stroke:none;" d="M75 139L75 142L76 142L75 139M110.667 139.333L111.333 139.667L110.667 139.333M134 139L135 140L134 139M65 140L65 144L66 144L65 140M112 140L112 144L113 144L112 140z"/>
<path style="fill:#2b8e2c; stroke:none;" d="M132.333 140.667L132.667 141.333L132.333 140.667M134 140L135 141L134 140z"/>
<path style="fill:#c7a581; stroke:none;" d="M135 141L136 142L135 141M74.3333 142.667L74.6667 143.333L74.3333 142.667z"/>
<path style="fill:#2b8e2c; stroke:none;" d="M135 142L136 143L135 142z"/>
<path style="fill:#c7a581; stroke:none;" d="M150 142L151 143L150 142z"/>
<path style="fill:#2b8e2c; stroke:none;" d="M131 143L132 144L131 143M133 143L131 148L135 148L136 152L137 152L133 143M151 143L152 144L151 143z"/>
<path style="fill:#c7a581; stroke:none;" d="M73 144L72 149L73 149L73 144M129 144L129 175L130 175L129 144z"/>
<path style="fill:#2b8e2c; stroke:none;" d="M136 144L137 145L136 144z"/>
<path style="fill:#c7a581; stroke:none;" d="M151 144L151 161L152 161L151 144M191 144L190 146L191 144z"/>
<path style="fill:#2b8e2c; stroke:none;" d="M192 144L193 145L192 144z"/>
<path style="fill:#c7a581; stroke:none;" d="M193 144L196 147L193 144M64 145L64 148L65 148L64 145z"/>
<path style="fill:#2b8e2c; stroke:none;" d="M111 145L112 146L111 145z"/>
<path style="fill:#c7a581; stroke:none;" d="M137 145L138 146L137 145z"/>
<path style="fill:#16572a; stroke:none;" d="M191 145L191 164L192 164L191 157L192 157L193 161L194 161L192 154C194.454 150.218 195.339 147.419 191 145z"/>
<path style="fill:#c7a581; stroke:none;" d="M111.333 146.667L111.667 147.333L111.333 146.667M138 146L139 147L138 146z"/>
<path style="fill:#2b8e2c; stroke:none;" d="M190 146L191 147L190 146M194 146L195 147L194 146M98 147L99 148L98 147M138 147L139 148L138 147z"/>
<path style="fill:#c7a581; stroke:none;" d="M189 147L189 151L190 151L189 147z"/>
<path style="fill:#2b8e2c; stroke:none;" d="M195.333 147.667L195.667 148.333L195.333 147.667M97 148L98 149L97 148M139 148L140 149L139 148M192 148L191 150L193 150L192 148M96 149L97 150L96 149z"/>
<path style="fill:#c7a581; stroke:none;" d="M140 149L141 150L140 149M195 149L196 150L195 149M63 150L64 151L63 150M71 150L72 151L71 150M94 150L94 152L96 150L94 150M110 150L110 154L111 154L110 150M141 150L142 151L141 150M177 150L178 151L177 150z"/>
<path style="fill:#2b8e2c; stroke:none;" d="M178 150L178 151L182 151L178 150z"/>
<path style="fill:#c7a581; stroke:none;" d="M182.667 150.333L183.333 150.667L182.667 150.333z"/>
<path style="fill:#2b8e2c; stroke:none;" d="M194 150L195 151L194 150z"/>
<path style="fill:#c7a581; stroke:none;" d="M62 151L62 155L63 155L62 151z"/>
<path style="fill:#2b8e2c; stroke:none;" d="M102 151L103 152L102 151z"/>
<path style="fill:#c7a581; stroke:none;" d="M103 151L98 157L103 153L102 156L103 151z"/>
<path style="fill:#2b8e2c; stroke:none;" d="M131.333 151.667L131.667 152.333L131.333 151.667M138 151L137 152L151 172L152 172L154 170L153 165L156 171L163 170L160 169L161 166L159 159L156 159L157 163L153 161C147.612 162.851 142.998 154.841 140 151L138 151z"/>
<path style="fill:#c7a581; stroke:none;" d="M142 151L143 152L142 151z"/>
<path style="fill:#16572a; stroke:none;" d="M174 156L179 156L175 168L170 167L170 168L172 170L168 171L167 167L160 167L163 170L157 170C159.543 173.879 162.754 172.454 165 169L167 169C169.474 172.755 172.25 170.749 176 170L177 160L178 160L178 163L179 163L189 152C183.522 150.381 175.969 149.516 174 156z"/>
<path style="fill:#2b8e2c; stroke:none;" d="M188 151L188 152L191 153L188 151M191 151L192 152L191 151z"/>
<path style="fill:#c7a581; stroke:none;" d="M194 151L195 152L194 151M70.3333 152.667L70.6667 153.333L70.3333 152.667M92 152L93 153L92 152M132 152L132 155L133 155L134 152L132 152z"/>
<path style="fill:#2b8e2c; stroke:none;" d="M134.333 152.667L134.667 153.333L134.333 152.667z"/>
<path style="fill:#c7a581; stroke:none;" d="M143 152L144 153L143 152M174 152L175 153L174 152z"/>
<path style="fill:#2b8e2c; stroke:none;" d="M177 153L177 154L185 155C182.885 151.977 180.413 152.284 177 153z"/>
<path style="fill:#c7a581; stroke:none;" d="M189 152L188 155L190 156L191 156L189 152M193.333 152.667L193.667 153.333L193.333 152.667M91 153L92 154L91 153z"/>
<path style="fill:#fefdfc; stroke:none;" d="M100 156L103 153L100 156z"/>
<path style="fill:#c7a581; stroke:none;" d="M114 153L112 157L113 157L117 155L114 153M144 153L145 154L144 153M173 153L173 156L174 156L173 153z"/>
<path style="fill:#2b8e2c; stroke:none;" d="M188 153L189 154L188 153M192 153L193 154L192 153z"/>
<path style="fill:#c7a581; stroke:none;" d="M204 153L204 154L207 154L204 153z"/>
<path style="fill:#2b8e2c; stroke:none;" d="M207 153L208 154L207 153z"/>
<path style="fill:#c7a581; stroke:none;" d="M208 153L209 154L208 153M221.667 153.333L222.333 153.667L221.667 153.333z"/>
<path style="fill:#2b8e2c; stroke:none;" d="M223 153L224 154L223 153z"/>
<path style="fill:#c7a581; stroke:none;" d="M224.667 153.333L225.333 153.667L224.667 153.333M69.3333 154.667L69.6667 155.333L69.3333 154.667M90 154L91 155L90 154z"/>
<path style="fill:#2b8e2c; stroke:none;" d="M114.667 154.333L115.333 154.667L114.667 154.333M135 154L136 155L135 154z"/>
<path style="fill:#c7a581; stroke:none;" d="M145 154L150 159L145 154M160 154L159 156L160 154z"/>
<path style="fill:#2b8e2c; stroke:none;" d="M161 154L162 155L161 154z"/>
<path style="fill:#16572a; stroke:none;" d="M157 160C161.054 159.295 163.179 158.885 165 163L166 163C165.737 159.59 165.321 158.099 162 157L162 156L168 157L169 166L170 166L169 155C163.429 154.016 159.655 154.617 157 160z"/>
<path style="fill:#2b8e2c; stroke:none;" d="M166 154L167 155L166 154z"/>
<path style="fill:#c7a581; stroke:none;" d="M167.667 154.333L168.333 154.667L167.667 154.333z"/>
<path style="fill:#2b8e2c; stroke:none;" d="M191 154L192 155L191 154M193 154L194 155L193 154z"/>
<path style="fill:#c7a581; stroke:none;" d="M202 154L197 162L198 162L202 154z"/>
<path style="fill:#2b8e2c; stroke:none;" d="M203 154L204 155L203 154z"/>
<path style="fill:#16572a; stroke:none;" d="M197 168L194 168L194 162L193 162L194 171L191 166L190 166L192 173C196.892 170.491 198.28 166.234 199 161L200 161L200 166L201 166L203 157L207 162L208 162L206 156L211 162L212 162L212 160L213 160L213 163L214 163L213 158L215 156L216 156L214 173L215 173C219.925 164.208 220.429 154.996 225 170L223 173L227 168C223.775 168 224.596 161.73 225 159L223 157L220 158C226.053 153.058 225.997 163.069 226 167L227 167C228.991 158.613 226.114 150.991 217 157L216 154L211 158C207.138 146.366 197.282 161.852 197 168z"/>
<path style="fill:#c7a581; stroke:none;" d="M210 154L211 155L210 154M213.333 154.667L213.667 155.333L213.333 154.667z"/>
<path style="fill:#2b8e2c; stroke:none;" d="M214 154L215 155L214 154z"/>
<path style="fill:#c7a581; stroke:none;" d="M216 154L217 155L216 154M219 154L220 155L219 154z"/>
<path style="fill:#2b8e2c; stroke:none;" d="M220 154L221 155L220 154M226 154L227 155L226 154z"/>
<path style="fill:#c7a581; stroke:none;" d="M61 155L61 158L62 158L61 155M89 155L90 156L89 155z"/>
<path style="fill:#2b8e2c; stroke:none;" d="M109 155L110 156L109 155z"/>
<path style="fill:#c7a581; stroke:none;" d="M117.333 155.667L117.667 156.333L117.333 155.667z"/>
<path style="fill:#2b8e2c; stroke:none;" d="M132 155L132 158L133 158L132 155z"/>
<path style="fill:#c7a581; stroke:none;" d="M135 155L136 156L135 155z"/>
<path style="fill:#2b8e2c; stroke:none;" d="M145 155L146 156L145 155M186 155L187 156L186 155z"/>
<path style="fill:#c7a581; stroke:none;" d="M187 155L188 156L187 155M194.333 155.667L194.667 156.333L194.333 155.667z"/>
<path style="fill:#2b8e2c; stroke:none;" d="M206 156L207 163L208 168L210 163L211 163L211 165L212 165L208 155L206 156M216 155L217 156L216 155z"/>
<path style="fill:#c7a581; stroke:none;" d="M218 155L219 156L218 155z"/>
<path style="fill:#2b8e2c; stroke:none;" d="M220 158L223 157L225 159L225 169L228 165L227 165L227 167C226.101 163.96 225.326 151.323 220 158z"/>
<path style="fill:#c7a581; stroke:none;" d="M227 155L228 156L227 155M68.3333 156.667L68.6667 157.333L68.3333 156.667M87 156L85 160L86 160L87 156z"/>
<path style="fill:#2b8e2c; stroke:none;" d="M88 156L89 157L88 156M97 156L98 157L97 156M100.667 156.333L101.333 156.667L100.667 156.333z"/>
<path style="fill:#c7a581; stroke:none;" d="M109 156L110 157L109 156z"/>
<path style="fill:#2b8e2c; stroke:none;" d="M113 156L114 157L113 156z"/>
<path style="fill:#c7a581; stroke:none;" d="M136 156L137 157L136 156z"/>
<path style="fill:#2b8e2c; stroke:none;" d="M146 156L147 157L146 156M153 156L154 157L153 156z"/>
<path style="fill:#c7a581; stroke:none;" d="M157 156L158 157L157 156z"/>
<path style="fill:#2b8e2c; stroke:none;" d="M158 156L159 157L158 156M162 156L162 157C166.707 159.621 165.274 163.454 164 168L167 167L168 171L172 170L170 168L171 165C167.725 165 167.589 159.771 168 157L162 156z"/>
<path style="fill:#c7a581; stroke:none;" d="M174 156L175 157L174 156M177 156L176 159L177 156z"/>
<path style="fill:#2b8e2c; stroke:none;" d="M178 156L179 157L178 156M184 156L185 157L184 156z"/>
<path style="fill:#c7a581; stroke:none;" d="M185 156L186 157L185 156M189 156L189 160L190 160L189 156M211.667 156.333L212.333 156.667L211.667 156.333z"/>
<path style="fill:#2b8e2c; stroke:none;" d="M215 156L213 158L214 170C218.355 166.923 217.502 160.176 215 156M217 156L218 157L217 156M227.333 156.667L227.667 157.333L227.333 156.667M87 157L88 158L87 157z"/>
<path style="fill:#c7a581; stroke:none;" d="M110 157L111 158L110 157z"/>
<path style="fill:#2b8e2c; stroke:none;" d="M111 157L112 158L111 157M117.333 157.667L117.667 158.333L117.333 157.667z"/>
<path style="fill:#c7a581; stroke:none;" d="M137 157L138 158L137 157z"/>
<path style="fill:#2b8e2c; stroke:none;" d="M147 157L148 158L147 157M157 157L158 158L157 157z"/>
<path style="fill:#c7a581; stroke:none;" d="M181 157L182 158L181 157z"/>
<path style="fill:#2b8e2c; stroke:none;" d="M191 157C191.549 160.291 193.438 163.86 190 163L194 171L193 162L194 162L194 164L195 164L195 157L194 157L194 161L193 161L191 157M202 159L205 158L202 159M211.667 157.333L212.333 157.667L211.667 157.333z"/>
<path style="fill:#c7a581; stroke:none;" d="M60 158L60 161L61 161L60 158M67.3333 158.667L67.6667 159.333L67.3333 158.667z"/>
<path style="fill:#2b8e2c; stroke:none;" d="M86 158L87 159L86 158z"/>
<path style="fill:#c7a581; stroke:none;" d="M132 158L132 161L133 161L132 158z"/>
<path style="fill:#2b8e2c; stroke:none;" d="M138 158L139 159L138 158M148 158L149 159L148 158z"/>
<path style="fill:#c7a581; stroke:none;" d="M156 158L157 159L156 158z"/>
<path style="fill:#2b8e2c; stroke:none;" d="M162 158L164 160L162 158M177 158L178 159L177 158M180 158L181 159L180 158z"/>
<path style="fill:#c7a581; stroke:none;" d="M203 158L202 160L203 158z"/>
<path style="fill:#fefdfc; stroke:none;" d="M204 158C201.831 162.087 202.009 164.855 204 169L206 169C207.28 164.659 207.333 161.264 204 158z"/>
<path style="fill:#c7a581; stroke:none;" d="M205 158L206 159L205 158z"/>
<path style="fill:#2b8e2c; stroke:none;" d="M206.333 158.667L206.667 159.333L206.333 158.667z"/>
<path style="fill:#c7a581; stroke:none;" d="M228 158L228 167L229 167L228 158M117.333 159.667L117.667 160.333L117.333 159.667z"/>
<path style="fill:#2b8e2c; stroke:none;" d="M130 159L131 160L130 159M139 159L140 160L139 159M149 159L150 160L149 159z"/>
<path style="fill:#c7a581; stroke:none;" d="M160 159L161 160L160 159z"/>
<path style="fill:#fefdfc; stroke:none;" d="M161 159L161 168C165.498 165.518 165.498 161.482 161 159z"/>
<path style="fill:#c7a581; stroke:none;" d="M169.333 159.667L169.667 160.333L169.333 159.667z"/>
<path style="fill:#2b8e2c; stroke:none;" d="M176 159L177 160L176 159z"/>
<path style="fill:#c7a581; stroke:none;" d="M180 159L181 160L180 159M219.667 159.333L220.333 159.667L219.667 159.333z"/>
<path style="fill:#2b8e2c; stroke:none;" d="M221 159L222 160L221 159z"/>
<path style="fill:#c7a581; stroke:none;" d="M66 160L67 161L66 160M86 160L87 161L86 160M140 160L141 161L140 160z"/>
<path style="fill:#2b8e2c; stroke:none;" d="M150 160L151 161L150 160z"/>
<path style="fill:#16572a; stroke:none;" d="M156 160L156 163L157 163L156 160z"/>
<path style="fill:#c7a581; stroke:none;" d="M164 160L165 161L164 160z"/>
<path style="fill:#2b8e2c; stroke:none;" d="M177 160L176 170L172 172L184 172L183 174L186 171C183.49 171.502 180.355 170.579 181 168L178 165L179 165L179 167L180 167L177 160M179.333 160.667L179.667 161.333L179.333 160.667z"/>
<path style="fill:#c7a581; stroke:none;" d="M190 160L190 163L191 163L190 160z"/>
<path style="fill:#2b8e2c; stroke:none;" d="M201.333 160.667L201.667 161.333L201.333 160.667M212.333 160.667L212.667 161.333L212.333 160.667z"/>
<path style="fill:#c7a581; stroke:none;" d="M222.333 160.667L222.667 161.333L222.333 160.667M65.3333 161.667L65.6667 162.333L65.3333 161.667M87 161L88 162L87 161M116 161L117 162L116 161z"/>
<path style="fill:#2b8e2c; stroke:none;" d="M131 161C130.443 163.952 128.232 171.372 132 172L130 174L130 175C133.828 172.702 133.156 169.946 132 166L133 166L134 170L135 170L133 161L131 161z"/>
<path style="fill:#c7a581; stroke:none;" d="M141 161L142 162L141 161z"/>
<path style="fill:#2b8e2c; stroke:none;" d="M169.333 161.667L169.667 162.333L169.333 161.667z"/>
<path style="fill:#c7a581; stroke:none;" d="M175 161L176 162L175 161z"/>
<path style="fill:#2b8e2c; stroke:none;" d="M199 161L196 170L199 170L198 173C200.253 172.549 204.708 172.17 204 175L207 172C205.229 172.354 202.032 170.742 205 170L205 169L202 170L202 165L199 161z"/>
<path style="fill:#c7a581; stroke:none;" d="M59.3333 162.667L59.6667 163.333L59.3333 162.667z"/>
<path style="fill:#2b8e2c; stroke:none;" d="M88 162L89 163L88 162M97 162L98 163L97 162z"/>
<path style="fill:#c7a581; stroke:none;" d="M98 162L99 163L98 162z"/>
<path style="fill:#2b8e2c; stroke:none;" d="M99.6667 162.333L100.333 162.667L99.6667 162.333z"/>
<path style="fill:#c7a581; stroke:none;" d="M115 162L116 163L115 162M142 162L143 163L142 162z"/>
<path style="fill:#2b8e2c; stroke:none;" d="M175 162L176 163L175 162z"/>
<path style="fill:#c7a581; stroke:none;" d="M179 162L179 165L180 165L179 162z"/>
<path style="fill:#2b8e2c; stroke:none;" d="M197 162L198 163L197 162z"/>
<path style="fill:#c7a581; stroke:none;" d="M201 162L201 165L202 165L201 162z"/>
<path style="fill:#2b8e2c; stroke:none;" d="M223 162L224 163L223 162z"/>
<path style="fill:#c7a581; stroke:none;" d="M64 163L65 164L64 163M88 163L89 164L88 163M94.6667 163.333L95.3333 163.667L94.6667 163.333M101 163L100 168L101 168L101 163M112 163L112 164L115 164L112 163M143 163L144 164L143 163M207 163L207 166L208 166L207 163z"/>
<path style="fill:#16572a; stroke:none;" d="M208.333 163.667L208.667 164.333L208.333 163.667M210 163L207 167L203 170L203 171L205 173L206 173C208.851 170.141 211.412 167.118 210 163z"/>
<path style="fill:#c7a581; stroke:none;" d="M223 163L224 164L223 163M58.3333 164.667L58.6667 165.333L58.3333 164.667z"/>
<path style="fill:#2b8e2c; stroke:none;" d="M89 164L90 165L89 164M91 164L92 165L91 164z"/>
<path style="fill:#c7a581; stroke:none;" d="M92.6667 164.333L93.3333 164.667L92.6667 164.333M109 167L110 167L112 165C109.86 163.882 109.473 164.749 109 167M144 164L145 165L144 164z"/>
<path style="fill:#16572a; stroke:none;" d="M159 164L159 167L160 167L159 164z"/>
<path style="fill:#c7a581; stroke:none;" d="M170 164L171 165L170 164M194 164L195 165L194 164M63 165L64 166L63 165M89.6667 165.333L90.3333 165.667L89.6667 165.333z"/>
<path style="fill:#2b8e2c; stroke:none;" d="M145 165L147 167L145 165z"/>
<path style="fill:#16572a; stroke:none;" d="M153 165L153 168L154 168L153 165z"/>
<path style="fill:#c7a581; stroke:none;" d="M154 165L154 168L155 168L154 165z"/>
<path style="fill:#16572a; stroke:none;" d="M178 165L179 169L180 169L178 165z"/>
<path style="fill:#c7a581; stroke:none;" d="M211 165L212 166L211 165M213 165L213 171L214 171L213 165M57.3333 166.667L57.6667 167.333L57.3333 166.667M62.3333 166.667L62.6667 167.333L62.3333 166.667z"/>
<path style="fill:#2b8e2c; stroke:none;" d="M101 166L102 167L101 166z"/>
<path style="fill:#16572a; stroke:none;" d="M132 166L133 171L134 171L132 166z"/>
<path style="fill:#c7a581; stroke:none;" d="M134 166L135 167L134 166M145 166L146 167L145 166M164 166L165 167L164 166M171 166L172 167L171 166M196 166L197 167L196 166M202 166L204 169L202 166z"/>
<path style="fill:#16572a; stroke:none;" d="M214.333 166.667L214.667 167.333L214.333 166.667z"/>
<path style="fill:#c7a581; stroke:none;" d="M96 167L96 170L100 168L96 167M110 167L111 168L110 167M146 167L147 168L146 167M163 167L164 168L163 167M172.667 167.333L173.333 167.667L172.667 167.333z"/>
<path style="fill:#2b8e2c; stroke:none;" d="M174 167L175 168L174 167z"/>
<path style="fill:#c7a581; stroke:none;" d="M185.667 167.333L186.333 167.667L185.667 167.333M194 167L195 168L194 167z"/>
<path style="fill:#2b8e2c; stroke:none;" d="M195.667 167.333L196.333 167.667L195.667 167.333z"/>
<path style="fill:#16572a; stroke:none;" d="M201 167L202 168L201 167z"/>
<path style="fill:#2b8e2c; stroke:none;" d="M210 167L211 168L210 167z"/>
<path style="fill:#c7a581; stroke:none;" d="M223 167L224 168L223 167M61 168L62 169L61 168M94.3333 168.667L94.6667 169.333L94.3333 168.667z"/>
<path style="fill:#2b8e2c; stroke:none;" d="M96 168L97 169L96 168z"/>
<path style="fill:#c7a581; stroke:none;" d="M111 168L112 169L111 168z"/>
<path style="fill:#2b8e2c; stroke:none;" d="M147 168L149 170L147 168z"/>
<path style="fill:#c7a581; stroke:none;" d="M155.333 168.667L155.667 169.333L155.333 168.667z"/>
<path style="fill:#16572a; stroke:none;" d="M156.333 168.667L156.667 169.333L156.333 168.667z"/>
<path style="fill:#c7a581; stroke:none;" d="M181 168L182 169L181 168M183 168L184 169L183 168z"/>
<path style="fill:#2b8e2c; stroke:none;" d="M184 168L185 169L184 168z"/>
<path style="fill:#16572a; stroke:none;" d="M185 168L180 169L180 170L185 172L185 168z"/>
<path style="fill:#2b8e2c; stroke:none;" d="M186.333 168.667L186.667 169.333L186.333 168.667z"/>
<path style="fill:#16572a; stroke:none;" d="M202.333 168.667L202.667 169.333L202.333 168.667z"/>
<path style="fill:#c7a581; stroke:none;" d="M206 168L205 170L206 168M210 168L211 169L210 168z"/>
<path style="fill:#2b8e2c; stroke:none;" d="M217 168L218 169L217 168M223 168L223 170L225 170L223 168z"/>
<path style="fill:#c7a581; stroke:none;" d="M227.333 168.667L227.667 169.333L227.333 168.667M56.3333 169.667L56.6667 170.333L56.3333 169.667M60 169L59 172L60 169M112.333 169.667L112.667 170.333L112.333 169.667M147 169L148 170L147 169z"/>
<path style="fill:#2b8e2c; stroke:none;" d="M164 171L167 170L164 171z"/>
<path style="fill:#c7a581; stroke:none;" d="M187 169L188 170L187 169z"/>
<path style="fill:#2b8e2c; stroke:none;" d="M206 169L207 170L206 169z"/>
<path style="fill:#c7a581; stroke:none;" d="M209 169L210 170L209 169M217.333 169.667L217.667 170.333L217.333 169.667z"/>
<path style="fill:#2b8e2c; stroke:none;" d="M94 170L95 171L94 170z"/>
<path style="fill:#c7a581; stroke:none;" d="M134 170L135 171L134 170M148 170L149 171L148 170M153 170L154 171L153 170M165.667 170.333L166.333 170.667L165.667 170.333M174 170L175 171L174 170M186.333 170.667L186.667 171.333L186.333 170.667z"/>
<path style="fill:#2b8e2c; stroke:none;" d="M190 170L192 173L190 170z"/>
<path style="fill:#c7a581; stroke:none;" d="M196 170L197 171L196 170z"/>
<path style="fill:#16572a; stroke:none;" d="M198.333 170.667L198.667 171.333L198.333 170.667z"/>
<path style="fill:#2b8e2c; stroke:none;" d="M208 170L209 171L208 170M216 170L217 171L216 170z"/>
<path style="fill:#c7a581; stroke:none;" d="M222 170L222 173L223 173L222 170z"/>
<path style="fill:#2b8e2c; stroke:none;" d="M226 170L224 173L226 170z"/>
<path style="fill:#c7a581; stroke:none;" d="M55 171L51 181L57 174L56 174L56 176L55 176L55 171M94 171L96 174L94 171z"/>
<path style="fill:#16572a; stroke:none;" d="M132 171L133 172L132 171z"/>
<path style="fill:#2b8e2c; stroke:none;" d="M149 171L150 172L149 171z"/>
<path style="fill:#c7a581; stroke:none;" d="M156 171L157 172L156 171M164 171L165 172L164 171z"/>
<path style="fill:#2b8e2c; stroke:none;" d="M167 171L168 172L167 171z"/>
<path style="fill:#c7a581; stroke:none;" d="M173 171L174 172L173 171M175 171L176 172L175 171z"/>
<path style="fill:#16572a; stroke:none;" d="M176 171C178.093 174.757 180.244 174.692 184 173L184 172L176 171z"/>
<path style="fill:#c7a581; stroke:none;" d="M195.333 171.667L195.667 172.333L195.333 171.667M197 171L198 172L197 171M208 171L209 172L208 171z"/>
<path style="fill:#2b8e2c; stroke:none;" d="M213.333 171.667L213.667 172.333L213.333 171.667z"/>
<path style="fill:#c7a581; stroke:none;" d="M226 171L227 172L226 171z"/>
<path style="fill:#16572a; stroke:none;" d="M56 172L57 173L56 172z"/>
<path style="fill:#c7a581; stroke:none;" d="M58 172L59 173L58 172M105 172L105 173L109 173L105 172z"/>
<path style="fill:#2b8e2c; stroke:none;" d="M112 172L113 173L112 172z"/>
<path style="fill:#16572a; stroke:none;" d="M131 172L130 174L132 174L131 172z"/>
<path style="fill:#c7a581; stroke:none;" d="M133 172L134 173L133 172M149 172L150 173L149 172z"/>
<path style="fill:#2b8e2c; stroke:none;" d="M152 172L153 173L152 172M157 172L158 173L157 172z"/>
<path style="fill:#c7a581; stroke:none;" d="M162.667 172.333L163.333 172.667L162.667 172.333z"/>
<path style="fill:#2b8e2c; stroke:none;" d="M168 172L168 173L171 173L168 172z"/>
<path style="fill:#c7a581; stroke:none;" d="M171.667 172.333L172.333 172.667L171.667 172.333M185 172L186 173L185 172M190 172L191 173L190 172z"/>
<path style="fill:#2b8e2c; stroke:none;" d="M194 172L195 173L194 172z"/>
<path style="fill:#16572a; stroke:none;" d="M199 172L205 174L205 173L199 172z"/>
<path style="fill:#c7a581; stroke:none;" d="M207 172L208 173L207 172M215 172L216 173L215 172M225 172L226 173L225 172M57 173L58 174L57 173M102.667 173.333L103.333 173.667L102.667 173.333z"/>
<path style="fill:#2b8e2c; stroke:none;" d="M109 173L110 174L109 173z"/>
<path style="fill:#c7a581; stroke:none;" d="M112 173L113 174L112 173z"/>
<path style="fill:#2b8e2c; stroke:none;" d="M150 173L151 174L150 173z"/>
<path style="fill:#c7a581; stroke:none;" d="M152 173L153 174L152 173z"/>
<path style="fill:#2b8e2c; stroke:none;" d="M176 173L177 174L176 173z"/>
<path style="fill:#c7a581; stroke:none;" d="M198 173L199 174L198 173M206 173L207 174L206 173M213.667 173.333L214.333 173.667L213.667 173.333M223 173L224 174L223 173M97 174L97 175L101 175L97 174M108 174L108 175L112 175L108 174M132 174L133 175L132 174M150.667 174.333L151.333 174.667L150.667 174.333M177 174L178 175L177 174z"/>
<path style="fill:#2b8e2c; stroke:none;" d="M181 174L182 175L181 174z"/>
<path style="fill:#c7a581; stroke:none;" d="M182 174L183 175L182 174M199 174L200 175L199 174z"/>
<path style="fill:#2b8e2c; stroke:none;" d="M200.667 174.333L201.333 174.667L200.667 174.333z"/>
<path style="fill:#c7a581; stroke:none;" d="M205 174L206 175L205 174z"/>
<path style="fill:#16572a; stroke:none;" d="M55 175L56 176L55 175M54 176L55 177L54 176z"/>
</svg>
